# AST/ASF file generated using VICON BodyLanguage
# -----------------------------------------------
:version 1.10
:name VICON
:units
  mass 1.0
  length 0.45
  angle deg
:documentation
   .ast/.asf automatically generated from VICON data using
   VICON BodyBuilder and BodyLanguage model FoxedUp or BRILLIANT.MOD
:root
   order TX TY TZ RX RY RZ
   axis XYZ
   position 0 0 0  
   orientation 0 0 0 
:bonedata
  begin
     id 1 
     name lhipjoint
     direction 0.646657 -0.683706 0.338203 
     length 2.4948 
     axis 0 0 0  XYZ
  end
  begin
     id 2 
     name lfemur
     direction 0.34202 -0.939693 0  
     length 6.79491  
     axis 0 0 20  XYZ
    dof rx ry rz
    limits (-160.0 20.0)
           (-70.0 70.0)
           (-60.0 70.0)
  end
  begin
     id 3 
     name ltibia
     direction 0.34202 -0.939693 0   
     length 7.56807   
     axis 0 0 20   XYZ
    dof rx
    limits (-10.0 170.0)
  end
  begin
     id 4 
     name lfoot
     direction 0.0679796 -0.186772 0.980048   
     length 2.53018   
     axis -90 7.62852e-016 20   XYZ
    dof rx rz
    limits (-45.0 90.0)
           (-70.0 20.0)
  end
  begin
     id 5 
     name ltoes
     direction 1.53625e-011 -4.21881e-011 1   
     length 1.26912   
     axis -90 7.62852e-016 20   XYZ
    dof rx
    limits (-90.0 20.0)
  end
  begin
     id 6 
     name rhipjoint
     direction -0.618868 -0.704065 0.348274   
     length 2.42265  
     axis 0 0 0  XYZ 
  end
  begin
     id 7 
     name rfemur
     direction -0.34202 -0.939693 0   
     length 6.73814   
     axis 0 0 -20   XYZ
    dof rx ry rz
    limits (-160.0 20.0)
           (-70.0 70.0)
           (-70.0 60.0)
  end
  begin
     id 8 
     name rtibia
     direction -0.34202 -0.939693 0   
     length 7.66799   
     axis 0 0 -20   XYZ
    dof rx
    limits (-10.0 170.0)
 end
 begin
     id 9 
     name rfoot
     direction -0.0727352 -0.199838 0.977125   
     length 2.57224  
     axis -90 -7.62852e-016 -20   XYZ
    dof rx rz
    limits (-45.0 90.0)
           (-20.0 70.0)
  end
  begin
     id 10 
     name rtoes
     direction -1.53501e-011 -4.21858e-011 1   
     length 1.28858   
     axis -90 -7.62852e-016 -20   XYZ
    dof rx
    limits (-90.0 20.0)
  end
  begin
     id 11 
     name lowerback
     direction -0.0172471 0.995767 -0.0902851   
     length 2.20206   
     axis 0 0 0   XYZ
    dof rx ry rz
    limits (-20.0 45.0)
           (-30.0 30.0)
           (-30.0 30.0)
  end
  begin
     id 12 
     name upperback
     direction -0.000110737 0.999714 0.0239043   
     length 2.19523   
     axis 0 0 0   XYZ
    dof rx ry rz
    limits (-20.0 45.0)
           (-30.0 30.0)
           (-30.0 30.0)
  end
  begin
     id 13 
     name thorax
     direction 0.00704869 0.997783 0.0661741   
     length 2.21977   
     axis 0 0 0   XYZ
    dof rx ry rz
    limits (-20.0 45.0)
           (-30.0 30.0)
           (-30.0 30.0)
  end
  begin
     id 14 
     name lowerneck
     direction -0.00407501 0.995527 0.0943846   
     length 1.83142   
     axis 0 0 0   XYZ
    dof rx ry rz
    limits (-20.0 45.0)
           (-30.0 30.0)
           (-30.0 30.0)
  end
  begin
     id 15 
     name upperneck
     direction 0.0640586 0.986486 -0.150807   
     length 1.84616   
     axis 0 0 0   XYZ
    dof rx ry rz
    limits (-20.0 45.0)
           (-30.0 30.0)
           (-30.0 30.0)
  end
  begin
     id 16
     name head
     direction 0.0188017 0.99791 -0.0618239  
     length 1.85932  
     axis 0 0 0   XYZ
    dof rx ry rz
    limits (-20.0 45.0)
           (-30.0 30.0)
           (-30.0 30.0)
  end
  begin
     id 17 
     name lclavicle
     direction 0.976074 0.206905 0.066852  
     length 3.81043  
     axis 0 0 0   XYZ
    dof ry rz
    limits (-20.0 10.0)
           (0.0 20.0)
  end
  begin
     id 18 
     name lhumerus
     direction 1 -4.48971e-011 1.86916e-027   
     length 5.37587   
     axis 180 -30 -90   XYZ
    dof rx ry rz
    limits (-60.0 90.0)
           (-90.0 90.0)
           (-90.0 90.0)
  end
  begin
     id 19
     name lradius
     direction 1 -4.48968e-011 1.69187e-027   
     length 3.35977   
     axis 180 -30 -90   XYZ
    dof rx
    limits (-10.0 170.0)
  end
  begin
     id 20
     name lwrist
     direction 1 -4.48968e-011 5.8978e-027   
     length 1.67988   
     axis -3.27506e-015 90 90   XYZ
    dof ry
    limits (-180.0 0.0)
 end
  begin
     id 21 
     name lhand
     direction 1 -4.49028e-011 1.18071e-026   
     length 0.561859   
     axis -7.52654e-015 90 90   XYZ
    dof rx rz
    limits (-90.0 90.0)
           (-45.0 45.0)
  end
  begin
     id 22 
     name lfingers
     direction 1 -4.48927e-011 2.35758e-026   
     length 0.452985   
     axis -1.50534e-014 90 90   XYZ
    dof rx
    limits (0.0 90.0)
  end
  begin
     id 23
     name lthumb
     direction 0.707107 -6.34898e-011 0.707107   
     length 0.650399   
     axis -90 45 5.69224e-014   XYZ
    dof rx rz
    limits (-45.0 45.0)
           (-45.0 45.0)
  end
  begin
     id 24 
     name rclavicle
     direction -0.988403 0.151789 0.00439714   
     length 3.6942  
     axis 0 0 0   XYZ 
    dof ry rz
    limits (-10.0 20.0)
           (-20.0 0.0)
  end
  begin
     id 25 
     name rhumerus
     direction -1 -4.48978e-011 1.62495e-027  
     length 5.22819   
     axis 180 30 90   XYZ
    dof rx ry rz
    limits (-90.0 60.0)
           (-90.0 90.0)
           (-90.0 90.0)
  end
  begin
     id 26 
     name rradius
     direction -1 -4.48961e-011 3.47796e-027   
     length 3.40764   
     axis 180 30 90   XYZ
    dof rx
    limits (-10.0 170.0)
  end
  begin
     id 27 
     name rwrist
     direction -1 -4.48949e-011 5.89602e-027   
     length 1.70382   
     axis -3.27506e-015 -90 -90   XYZ
    dof ry
    limits (-180.0 0.0)
  end
  begin
     id 28
     name rhand
     direction -1 -4.48977e-011 1.17973e-026   
     length 0.583255   
     axis -7.52654e-015 -90 -90   XYZ
    dof rx rz
    limits (-90.0 90.0)
           (-45.0 45.0)
  end
  begin
     id 29
     name rfingers
     direction -1 -4.49099e-011 2.36408e-026   
     length 0.470235   
     axis -1.50534e-014 -90 -90   XYZ
    dof rx
    limits (0.0 90.0)
  end
  begin
     id 30
     name rthumb
     direction -0.707107 -6.35011e-011 0.707107   
     length 0.675167   
     axis -90 -45 -5.69224e-014   XYZ
    dof rx rz
    limits (-45.0 45.0)
           (-45.0 45.0)
  end
:hierarchy
  begin
    root lhipjoint rhipjoint lowerback
    lhipjoint lfemur
    lfemur ltibia
    ltibia lfoot
    lfoot ltoes
    rhipjoint rfemur
    rfemur rtibia
    rtibia rfoot
    rfoot rtoes
    lowerback upperback
    upperback thorax
    thorax lowerneck lclavicle rclavicle
    lowerneck upperneck
    upperneck head
    lclavicle lhumerus
    lhumerus lradius
    lradius lwrist
    lwrist lhand lthumb
    lhand lfingers
    rclavicle rhumerus
    rhumerus rradius
    rradius rwrist
    rwrist rhand rthumb
    rhand rfingers
  end

#!OML:ASF G:\JayActor3\Patient Classification 1\Patient 1\Session 2\male.ASF
:FULLY-SPECIFIED
:DEGREES
589
root -7.10721 16.719 -7.82577 373.959 -48.3584 -353.724
lowerback 13.2674 2.07025 2.75006
upperback 4.11804 3.04156 1.5062
thorax -3.03586 1.45825 -0.447248
lowerneck 1.13049 -11.3427 -9.83314
upperneck -9.98047 -14.4367 18.9519
head -0.891071 -7.62444 7.24217
rclavicle -3.65764e-014 3.33958e-014
rhumerus 3.75935 33.5302 -48.2639
rradius 84.4943
rwrist -9.17287
rhand -15.7819 4.25368
rfingers 7.12502
rthumb 10.4106 -25.4686
lclavicle -3.65764e-014 3.33958e-014
lhumerus -59.1634 -14.5025 90.6574
lradius 58.4838
lwrist 23.6794
lhand -17.14 23.3885
lfingers 7.12502
lthumb 9.10021 53.1721
rfemur -23.8153 -7.04303 31.3626
rtibia 29.9505
rfoot 13.0635 28.1557
rtoes 45.874
lfemur -69.9331 2.96905 -28.5226
ltibia 85.4676
lfoot -1.95243 -11.451
ltoes -16.8349
590
root -7.28581 16.6974 -7.86135 374.135 -49.3767 -353.343
lowerback 13.6393 2.37345 2.16666
upperback 4.2887 3.36346 1.51159
thorax -3.08519 1.61369 -0.176016
lowerneck 1.63923 -11.3306 -9.74326
upperneck -10.5195 -14.377 19.1565
head -1.12775 -7.64656 7.35428
rclavicle 9.54166e-015 2.06736e-014
rhumerus 5.06063 32.7189 -48.2989
rradius 84.8046
rwrist -8.92108
rhand -15.6539 4.31817
rfingers 7.12502
rthumb 10.534 -25.3979
lclavicle 9.54166e-015 2.06736e-014
lhumerus -60.8032 -14.501 91.1481
lradius 58.9607
lwrist 23.4915
lhand -16.3863 23.0736
lfingers 7.12502
lthumb 9.82746 52.8242
rfemur -23.5635 -7.57673 31.7967
rtibia 29.5369
rfoot 13.5656 28.1197
rtoes 45.9454
lfemur -71.1188 2.819 -31.4859
ltibia 83.744
lfoot -2.62356 -12.5621
ltoes -17.7613
591
root -7.47399 16.6694 -7.89459 374.304 -50.3841 -353.078
lowerback 13.9923 2.69002 1.60005
upperback 4.45273 3.70115 1.53864
thorax -3.13681 1.7761 0.103712
lowerneck 2.04924 -11.3402 -9.75641
upperneck -10.9539 -14.3536 19.4038
head -1.30101 -7.678 7.48177
rclavicle 3.81667e-014 -3.02153e-014
rhumerus 5.99371 31.9446 -48.8164
rradius 85.0534
rwrist -8.70067
rhand -15.6179 4.38839
rfingers 7.12502
rthumb 10.5687 -25.3259
lclavicle 3.81667e-014 -3.02153e-014
lhumerus -62.2781 -14.1555 91.2815
lradius 59.2713
lwrist 23.3392
lhand -15.6232 22.7291
lfingers 7.12502
lthumb 10.5636 52.4436
rfemur -23.0921 -8.14729 32.293
rtibia 29.0175
rfoot 14.1294 28.1354
rtoes 45.9923
lfemur -71.8776 2.85137 -34.4228
ltibia 81.6069
lfoot -2.79391 -13.6526
ltoes -18.0513
592
root -7.67093 16.6327 -7.92501 374.536 -51.3337 -352.985
lowerback 14.3048 2.9923 1.12505
upperback 4.60542 4.02916 1.58858
thorax -3.17934 1.93327 0.356523
lowerneck 2.34178 -11.3681 -9.845
upperneck -11.2934 -14.3622 19.6585
head -1.41606 -7.71556 7.60885
rclavicle 4.6118e-014 -3.18055e-014
rhumerus 6.58997 31.2614 -49.7916
rradius 85.2449
rwrist -8.49757
rhand -15.7057 4.47263
rfingers 7.12502
rthumb 10.4841 -25.2459
lclavicle 4.6118e-014 -3.18055e-014
lhumerus -63.6087 -13.5374 91.0822
lradius 59.4451
lwrist 23.2973
lhand -14.9739 22.4387
lfingers 7.12502
lthumb 11.19 52.1203
rfemur -22.4429 -8.70251 32.8703
rtibia 28.4203
rfoot 14.6767 28.2257
rtoes 45.9645
lfemur -72.2724 3.05791 -37.2663
ltibia 79.1505
lfoot -2.45104 -14.6359
ltoes -17.7672
593
root -7.87487 16.586 -7.95159 374.915 -52.1922 -353.126
lowerback 14.5533 3.25444 0.821213
upperback 4.73736 4.32635 1.65771
thorax -3.20259 2.07528 0.539327
lowerneck 2.51709 -11.4062 -9.97917
upperneck -11.5499 -14.3917 19.887
head -1.48315 -7.75342 7.72171
rclavicle 5.24792e-014 4.29375e-014
rhumerus 6.88617 30.721 -51.1826
rradius 85.376
rwrist -8.27996
rhand -15.9328 4.56225
rfingers 7.12502
rthumb 10.265 -25.1673
lclavicle 5.24792e-014 4.29375e-014
lhumerus -64.8208 -12.7143 90.5957
lradius 59.4973
lwrist 23.3494
lhand -14.5851 22.2571
lfingers 7.12502
lthumb 11.5649 51.918
rfemur -21.6728 -9.23733 33.56
rtibia 27.7737
rfoot 15.1799 28.4112
rtoes 45.856
lfemur -72.3741 3.40083 -39.9186
ltibia 76.4778
lfoot -1.52884 -15.4261
ltoes -16.6986
594
root -8.08571 16.5283 -7.974 375.47 -52.9643 -353.498
lowerback 14.7152 3.46579 0.685825
upperback 4.8378 4.58025 1.73341
thorax -3.20235 2.19661 0.644716
lowerneck 2.58663 -11.4392 -10.1179
upperneck -11.7268 -14.4213 20.0596
head -1.51412 -7.7816 7.80699
rclavicle 9.54166e-015 -3.18055e-014
rhumerus 6.91824 30.3706 -52.9531
rradius 85.4285
rwrist -8.03559
rhand -16.2607 4.64835
rfingers 7.12502
rthumb 9.94868 -25.0966
lclavicle 9.54166e-015 -3.18055e-014
lhumerus -65.9555 -11.7492 89.8849
lradius 59.4509
lwrist 23.4257
lhand -14.5621 22.214
lfingers 7.12502
lthumb 11.5871 51.8736
rfemur -20.8331 -9.69983 34.351
rtibia 27.1081
rfoot 15.5656 28.7024
rtoes 45.6337
lfemur -72.2351 3.86157 -42.3468
ltibia 73.6519
lfoot -0.08194 -15.937
ltoes -15.173
595
root -8.30356 16.4597 -7.99228 376.203 -53.6716 -354.082
lowerback 14.7709 3.62551 0.689956
upperback 4.90839 4.78633 1.80392
thorax -3.16565 2.2955 0.679791
lowerneck 2.55904 -11.4548 -10.2205
upperneck -11.8247 -14.433 20.1608
head -1.51817 -7.79225 7.85531
rclavicle -2.38542e-014 1.59028e-015
rhumerus 6.72882 30.2395 -55.0536
rradius 85.3721
rwrist -7.75952
rhand -16.6607 4.73251
rfingers 7.12502
rthumb 9.56276 -25.0305
lclavicle -2.38542e-014 1.59028e-015
lhumerus -67.0381 -10.6984 89.018
lradius 59.3295
lwrist 23.4307
lhand -14.9359 22.3048
lfingers 7.12502
lthumb 11.2266 51.9844
rfemur -19.944 -10.0546 35.2261
rtibia 26.4363
rfoot 15.7993 29.0848
rtoes 45.337
lfemur -71.8886 4.41551 -44.4913
ltibia 70.7327
lfoot 1.85503 -16.0921
ltoes -13.124
596
root -8.52908 16.3811 -8.00736 377.074 -54.3563 -354.832
lowerback 14.7132 3.74375 0.762873
upperback 4.95781 4.94728 1.85465
thorax -3.08278 2.37351 0.670053
lowerneck 2.44443 -11.4419 -10.2945
upperneck -11.8315 -14.4115 20.2299
head -1.49169 -7.77926 7.88061
rclavicle 5.725e-014 1.59028e-015
rhumerus 6.35842 30.3394 -57.4422
rradius 85.1669
rwrist -7.48066
rhand -17.0767 4.81382
rfingers 7.12502
rthumb 9.16135 -24.9672
lclavicle 5.725e-014 1.59028e-015
lhumerus -68.0841 -9.61983 88.0617
lradius 59.1694
lwrist 23.3432
lhand -15.6599 22.4898
lfingers 7.12502
lthumb 10.5283 52.2061
rfemur -19.0025 -10.2694 36.1485
rtibia 25.7654
rfoot 15.8244 29.5404
rtoes 44.9654
lfemur -71.3464 5.04538 -46.3096
ltibia 67.7523
lfoot 4.10046 -15.8483
ltoes -10.7135
597
root -8.7627 16.2939 -8.02078 378.027 -55.069 -355.697
lowerback 14.5437 3.83638 0.823862
upperback 4.99849 5.07138 1.87038
thorax -2.94656 2.4347 0.644193
lowerneck 2.25843 -11.3952 -10.3172
upperneck -11.7454 -14.3484 20.2828
head -1.43852 -7.74065 7.88604
rclavicle -8.66701e-014 5.725e-014
rhumerus 5.83646 30.6628 -60.0786
rradius 84.7812
rwrist -7.22242
rhand -17.4637 4.88696
rfingers 7.12502
rthumb 8.7879 -24.9101
lclavicle -8.66701e-014 5.725e-014
lhumerus -69.0881 -8.56695 87.0674
lradius 59.0041
lwrist 23.1847
lhand -16.5655 22.7411
lfingers 7.12502
lthumb 9.65458 52.4999
rfemur -17.9808 -10.3097 37.0735
rtibia 25.0918
rfoot 15.6392 30.0163
rtoes 44.5776
lfemur -70.6094 5.73038 -47.7401
ltibia 64.732
lfoot 6.4301 -15.189
ltoes -8.00828
598
root -9.00393 16.1996 -8.03381 379.013 -55.8703 -356.632
lowerback 14.2845 3.92152 0.805087
upperback 5.02996 5.17299 1.83338
thorax -2.7738 2.48588 0.617938
lowerneck 2.01806 -11.3057 -10.3113
upperneck -11.5509 -14.234 20.3556
head -1.35344 -7.67222 7.8873
rclavicle 3.10104e-014 -3.18055e-015
rhumerus 5.16701 31.2029 -62.925
rradius 84.1981
rwrist -6.99928
rhand -17.7877 4.96031
rfingers 7.12502
rthumb 8.47517 -24.8496
lclavicle 3.10104e-014 -3.18055e-015
lhumerus -70.0428 -7.58361 86.0688
lradius 58.8552
lwrist 23.0269
lhand -17.4264 23.025
lfingers 7.12502
lthumb 8.8239 52.8205
rfemur -16.8567 -10.1507 37.9562
rtibia 24.4221
rfoot 15.2516 30.4706
rtoes 44.1778
lfemur -69.6822 6.43972 -48.7215
ltibia 61.673
lfoot 8.56289 -14.1391
ltoes -5.28989
